<?xml version="1.0" encoding="UTF-8"?>
<svg id="Layer_2" data-name="Layer 2" xmlns="http://www.w3.org/2000/svg" viewBox="0 0 1454.88 117.09">
  <defs>
    <style>
      .cls-1 {
        fill: #fff;
      }
    </style>
  </defs>
  <g id="Layer_1-2" data-name="Layer 1">
    <g>
      <g>
        <path class="cls-1" d="M142.17,78.48h26.96c2.11,11.79,10.95,17.55,26.25,17.55,13.76,0,20.64-4.21,20.64-12.64,0-6.46-3.93-9.83-13.62-11.93l-24.01-5.05c-21.76-4.63-32.01-14.88-32.01-32.01C146.39,12.92,163.79,0,192.16,0s47.03,13.48,48.86,36.22h-26.96c-2.67-10.81-10.11-16-23.45-16-11.51,0-18.39,4.21-18.39,11.65,0,5.62,4.07,9.27,12.07,10.95l25.13,5.19c22.6,4.63,32.43,14.88,32.43,33.27,0,22.74-16.99,35.8-47.45,35.8s-50.54-14.32-52.23-38.61Z"/>
        <path class="cls-1" d="M277.8,115.41V24.71h-35.66V1.68h97.15v23.02h-35.66v90.7h-25.83Z"/>
        <path class="cls-1" d="M346.31,1.68h60.37c24.43,0,39.31,11.79,39.31,30.89,0,12.78-6.6,21.76-16.99,24.99v.56c10.81,0,16.99,5.9,16.99,17.69v39.59h-26.39v-42.12h-46.89v42.12h-26.39V1.68ZM405,50.26c9.69,0,15.16-4.63,15.16-12.78s-5.48-12.78-15.16-12.78h-32.29v25.55h32.29Z"/>
        <path class="cls-1" d="M459.47,115.41V1.68h84.24v23.02h-57.84v20.5h52.79v22.46h-52.79v24.71h57.84v23.03h-84.24Z"/>
        <path class="cls-1" d="M635.95,115.41l-55.74-74.41h-.56v74.41h-25.27V1.68h26.82l56.86,76.52h.56V1.68h25.27v113.72h-27.94Z"/>
        <path class="cls-1" d="M673.72,58.69C673.72,23.45,697.16,0,732.4,0c28.78,0,48.72,15.72,52.51,41.42h-27.52c-1.83-11.37-11.23-18.11-24.99-18.11-19.8,0-32.29,13.9-32.29,35.66s12.78,36.22,33.13,36.22c14.74,0,25.83-7.58,25.83-17.69v-3.37h-27.94v-20.22h35.24c12.35,0,18.53,5.9,18.53,17.69v43.8h-24.15v-12.07h-.7c-5.48,9.13-15.58,13.76-30.33,13.76-33.27,0-56.02-23.73-56.02-58.4Z"/>
        <path class="cls-1" d="M825.35,115.41V24.71h-35.66V1.68h97.15v23.02h-35.66v90.7h-25.83Z"/>
        <path class="cls-1" d="M893.86,1.68h26.39v43.24h52.51V1.68h26.39v113.72h-26.39v-47.45h-52.51v47.45h-26.39V1.68Z"/>
        <path class="cls-1" d="M1045.77,115.41V1.68h84.24v23.02h-57.84v20.5h52.79v22.46h-52.79v24.71h57.84v23.03h-84.24Z"/>
        <path class="cls-1" d="M1140.67,1.68h26.39v90.7h57.28v23.03h-83.68V1.68Z"/>
        <path class="cls-1" d="M1232.21,1.68h26.39v113.72h-26.39V1.68Z"/>
        <path class="cls-1" d="M1302.13,115.41V24.71h-35.66V1.68h97.15v23.02h-35.66v90.7h-25.83Z"/>
        <path class="cls-1" d="M1370.64,115.41V1.68h84.24v23.02h-57.84v20.5h52.79v22.46h-52.79v24.71h57.84v23.03h-84.24Z"/>
      </g>
      <path class="cls-1" d="M0,0v115.41h115.41V0H0ZM51.21,82.85v22.44l-5.83-11.21-5.83-11.21-.23-7.61-.23-7.61-6.38-4.16-6.38-4.16v-20.01c2.46.8,3.37,2.67,4.04,4.69s1.07,4.17,2.5,5.54c2.02,1.92,5.5,3.56,9.03,5.25,3.53,1.69,7.11,3.45,9.31,5.61v22.44ZM89.07,49.32v10.01l-6.38,4.17-6.38,4.17-.24,7.61-.24,7.61-5.83,11.21-5.83,11.21v-44.89c2.2-2.16,5.78-3.92,9.31-5.61s7.01-3.33,9.03-5.25c1.43-1.37,1.84-3.52,2.5-5.54.66-2.02,1.58-3.89,4.03-4.69v10.01ZM103.13,17.95v7.84c0,.24-1.34,2.12-2.72,3.97-1.38,1.85-2.82,3.68-3.01,3.82-3.2,2.44-9.2,4.45-15.27,6.44-6.07,2-12.22,3.98-15.71,6.39-1.24.85-2.94,3.56-4.63,5.98s-3.39,4.54-4.61,4.23c-1.31-1.23-2.68-3.32-4.06-5.33s-2.77-3.95-4.13-4.89c-3.54-2.44-9.74-4.47-15.83-6.47-6.09-2.01-12.07-3.99-15.15-6.35-.19-.15-1.62-1.97-3.01-3.82s-2.72-3.72-2.72-3.97v-15.68l3.27,5.11,3.27,5.11,19.21,5.67,19.21,5.67,19.32-5.49,19.32-5.49,3.63-5.3,3.63-5.3v7.84Z"/>
    </g>
  </g>
</svg>