<?xml version="1.0" encoding="UTF-8"?>
<svg id="Layer_2" xmlns="http://www.w3.org/2000/svg" version="1.1" viewBox="0 0 133.3 133.3">
  <!-- Generator: Adobe Illustrator 29.0.0, SVG Export Plug-In . SVG Version: 2.1.0 Build 186)  -->
  <g id="Layer_1-2">
    <path d="M0,0v133.3h133.3V0H0ZM59.2,95.7v25.9l-6.7-12.9-6.7-12.9-.3-8.8-.3-8.8-7.4-4.8-7.4-4.8v-23.1c2.8.9,3.9,3.1,4.7,5.4s1.2,4.8,2.9,6.4c2.3,2.2,6.4,4.1,10.4,6.1,4.1,2,8.2,4,10.8,6.5v25.9h0ZM102.9,57v11.6l-7.4,4.8-7.4,4.8-.3,8.8-.3,8.8-6.7,12.9-6.7,12.9v-51.8c2.5-2.5,6.7-4.5,10.8-6.5s8.1-3.8,10.4-6.1c1.7-1.6,2.1-4.1,2.9-6.4.8-2.3,1.8-4.5,4.7-5.4v11.6h0ZM119.1,20.7v9.1c0,.3-1.5,2.4-3.1,4.6-1.6,2.1-3.2,4.2-3.5,4.4-3.7,2.8-10.6,5.1-17.6,7.4-7,2.3-14.1,4.6-18.2,7.4-1.4,1-3.4,4.1-5.3,6.9s-3.9,5.2-5.3,4.9c-1.5-1.4-3.1-3.8-4.7-6.2s-3.2-4.6-4.8-5.6c-4.1-2.8-11.2-5.2-18.3-7.5-7-2.3-13.9-4.6-17.5-7.3-.2-.2-1.9-2.3-3.5-4.4s-3.1-4.3-3.1-4.6V11.7l3.8,5.9,3.8,5.9,22.2,6.5,22.2,6.5,22.3-6.3,22.3-6.3,4.2-6.1,4.2-6.1v9.1h0Z"/>
  </g>
</svg>