<?xml version="1.0" encoding="UTF-8"?>
<svg id="Layer_2" data-name="Layer 2" xmlns="http://www.w3.org/2000/svg" viewBox="0 0 1518.3 185.59">
  <defs>
    <style>
      .cls-1 {
        fill: #fff;
      }
    </style>
  </defs>
  <g id="Layer_1-2" data-name="Layer 1">
    <g>
      <g>
        <path class="cls-1" d="M179.34,100.53h22.59c.54,5.02,2.54,9.53,6,13.53,3.46,4,8.07,7.12,13.84,9.36,5.77,2.24,12.38,3.36,19.84,3.36,6.65,0,12.14-.81,16.48-2.44,4.34-1.63,7.56-3.9,9.67-6.82,2.1-2.92,3.15-6.34,3.15-10.28s-1.26-7.02-3.76-9.26c-2.51-2.24-6.34-4.14-11.5-5.7-5.16-1.56-11.74-3.08-19.74-4.58-6.65-1.22-13.09-2.85-19.33-4.88-6.24-2.03-11.84-4.61-16.79-7.73-4.95-3.12-8.85-6.95-11.7-11.5-2.85-4.54-4.27-9.94-4.27-16.18,0-7.05,2-13.43,6-19.13,4-5.7,9.94-10.18,17.81-13.43,7.87-3.26,17.43-4.88,28.69-4.88,17.23,0,30.39,3.97,39.48,11.91,9.09,7.94,13.5,18.69,13.23,32.25h-22.18c-.41-8.55-3.53-14.72-9.36-18.52-5.83-3.8-13.23-5.7-22.18-5.7-8.01,0-14.72,1.42-20.15,4.27-5.43,2.85-8.14,7.46-8.14,13.84,0,2.71.64,5.06,1.93,7.02,1.29,1.97,3.42,3.73,6.41,5.29,2.98,1.56,7.09,3.05,12.31,4.48,5.22,1.42,11.63,2.95,19.23,4.58,6.51,1.09,12.62,2.58,18.31,4.48,5.7,1.9,10.68,4.27,14.96,7.12s7.63,6.51,10.07,10.99c2.44,4.48,3.66,9.97,3.66,16.48,0,7.46-1.9,14.08-5.7,19.84-3.8,5.77-9.6,10.31-17.4,13.63-7.8,3.32-17.88,4.99-30.22,4.99-9.36,0-17.54-1.12-24.52-3.36-6.99-2.24-12.92-5.15-17.81-8.75-4.88-3.59-8.79-7.49-11.7-11.7-2.92-4.2-4.95-8.31-6.11-12.31-1.15-4-1.53-7.43-1.12-10.28Z"/>
        <path class="cls-1" d="M306.52,42.94h71.63v18.52h-71.63v-18.52ZM330.94,15.67h22.79v128.61h-22.79V15.67Z"/>
        <path class="cls-1" d="M394.84,42.94h22.59v101.34h-22.59V42.94ZM454.06,62.27c-7.33,0-13.6,1.56-18.82,4.68-5.22,3.12-9.4,6.92-12.52,11.4-3.12,4.48-5.29,8.82-6.51,13.02l-.2-11.4c.13-1.49.61-3.76,1.42-6.82.81-3.05,2.07-6.41,3.77-10.07,1.69-3.66,4-7.22,6.92-10.68,2.92-3.46,6.51-6.27,10.79-8.45,4.27-2.17,9.33-3.26,15.16-3.26v21.57Z"/>
        <path class="cls-1" d="M554.79,110.91h21.77c-1.09,6.92-3.76,13.06-8.04,18.42-4.27,5.36-10.07,9.56-17.4,12.62s-16.08,4.58-26.25,4.58c-11.53,0-21.84-2.14-30.93-6.41-9.09-4.27-16.21-10.34-21.37-18.21-5.16-7.87-7.73-17.23-7.73-28.08s2.51-20.08,7.53-28.08c5.02-8,11.97-14.17,20.86-18.52,8.88-4.34,19.16-6.51,30.83-6.51s22.15,2.14,30.22,6.41c8.07,4.27,14.07,10.65,18.01,19.13,3.93,8.48,5.56,19.16,4.88,32.05h-89.34c.68,5.7,2.54,10.82,5.6,15.36,3.05,4.55,7.22,8.07,12.52,10.58,5.29,2.51,11.46,3.77,18.52,3.77,7.87,0,14.48-1.56,19.84-4.68,5.36-3.12,8.85-7.26,10.48-12.41ZM523.45,59.02c-9.23,0-16.82,2.27-22.79,6.82-5.97,4.55-9.84,10.35-11.6,17.4h65.32c-.54-7.6-3.6-13.53-9.16-17.81-5.56-4.27-12.82-6.41-21.78-6.41Z"/>
        <path class="cls-1" d="M596.3,42.94h22.59v101.34h-22.59V42.94ZM661.63,40.7c5.83,0,11.22.81,16.18,2.44,4.95,1.63,9.22,4.1,12.82,7.43,3.59,3.33,6.38,7.43,8.34,12.31,1.96,4.88,2.95,10.65,2.95,17.3v64.1h-22.59v-59.62c0-8.27-2-14.41-6-18.42-4-4-10.28-6-18.82-6-6.51,0-12.45,1.39-17.81,4.17-5.36,2.78-9.74,6.38-13.13,10.79-3.39,4.41-5.36,9.26-5.9,14.55l-.2-10.99c.68-5.02,2.17-9.8,4.48-14.35,2.3-4.54,5.36-8.61,9.16-12.21,3.8-3.59,8.27-6.41,13.43-8.45,5.15-2.04,10.85-3.05,17.09-3.05Z"/>
        <path class="cls-1" d="M771.11,128.61c-9.5,0-18.08-1.7-25.74-5.09-7.67-3.39-13.71-8.34-18.11-14.86-4.41-6.51-6.61-14.31-6.61-23.4s2.14-16.96,6.41-23.61c4.27-6.65,10.24-11.8,17.91-15.47,7.66-3.66,16.38-5.49,26.15-5.49,2.85,0,5.6.2,8.24.61s5.19.95,7.63,1.63l47.42.2v18.92c-6.51.14-13.06-.78-19.64-2.75-6.58-1.96-12.38-4.04-17.4-6.21l-.61-1.22c4.61,2.31,8.78,5.12,12.52,8.45,3.73,3.33,6.68,7.09,8.85,11.29,2.17,4.21,3.26,8.95,3.26,14.25,0,8.95-2.14,16.62-6.41,23-4.27,6.38-10.17,11.26-17.7,14.65-7.53,3.39-16.25,5.09-26.15,5.09ZM803.67,185.59v-4.68c0-6.65-1.97-11.33-5.9-14.04-3.94-2.72-9.43-4.07-16.48-4.07h-27.47c-5.43,0-10.07-.44-13.94-1.32-3.87-.88-6.96-2.17-9.26-3.87-2.31-1.7-4-3.66-5.09-5.9-1.09-2.24-1.63-4.71-1.63-7.43,0-5.42,1.66-9.49,4.99-12.21,3.32-2.71,7.73-4.48,13.23-5.29,5.49-.81,11.29-.95,17.4-.41l11.6,2.24c-8.01.27-14.08.99-18.21,2.14-4.14,1.15-6.21,3.43-6.21,6.82,0,2.03.81,3.66,2.44,4.88,1.63,1.22,3.93,1.83,6.92,1.83h28.9c8.27,0,15.53.98,21.78,2.95,6.24,1.96,11.09,5.29,14.55,9.97,3.46,4.68,5.19,11.09,5.19,19.23v9.16h-22.79ZM771.11,110.91c5.42,0,10.24-1.02,14.45-3.05,4.2-2.04,7.53-4.95,9.97-8.75,2.44-3.8,3.66-8.41,3.66-13.84s-1.22-10.11-3.66-14.04c-2.44-3.93-5.77-6.92-9.97-8.95-4.21-2.04-9.02-3.05-14.45-3.05s-10.07,1.02-14.35,3.05-7.63,4.99-10.07,8.85c-2.44,3.87-3.66,8.58-3.66,14.14s1.22,10.04,3.66,13.84c2.44,3.8,5.77,6.72,9.97,8.75,4.2,2.03,9.02,3.05,14.45,3.05Z"/>
        <path class="cls-1" d="M844.37,42.94h71.63v18.52h-71.63v-18.52ZM868.79,15.67h22.79v128.61h-22.79V15.67Z"/>
        <path class="cls-1" d="M934.72,144.28V2.24h22.59v142.04h-22.59ZM1017.75,144.28v-58.61c0-5.42-.92-9.94-2.75-13.53-1.83-3.59-4.65-6.34-8.45-8.24-3.8-1.9-8.82-2.85-15.06-2.85s-11.94,1.32-17.09,3.97c-5.16,2.65-9.36,6.14-12.62,10.48-3.26,4.34-5.16,9.16-5.7,14.45l-.2-11.4c.68-4.88,2.17-9.6,4.48-14.14,2.31-4.54,5.36-8.58,9.16-12.11,3.8-3.53,8.27-6.34,13.43-8.45,5.15-2.1,10.85-3.15,17.09-3.15,5.83,0,11.22.81,16.18,2.44,4.95,1.63,9.22,4.04,12.82,7.22,3.59,3.19,6.38,7.12,8.34,11.8,1.96,4.68,2.95,10.07,2.95,16.18v65.93h-22.59Z"/>
        <path class="cls-1" d="M1112.17,88.12v36.22h92.59v19.94h-115.79V12.41h115.59v19.94h-92.39v36.63h75.7v19.13h-75.7Z"/>
        <path class="cls-1" d="M1230.6,2.24h22.59v142.04h-22.59V2.24Z"/>
        <path class="cls-1" d="M1306.1,0v21.77h-27.07V0h27.07ZM1281.07,42.94h22.79v101.34h-22.79V42.94Z"/>
        <path class="cls-1" d="M1322.79,42.94h71.63v18.52h-71.63v-18.52ZM1347.21,15.67h22.79v128.61h-22.79V15.67Z"/>
        <path class="cls-1" d="M1495.76,110.91h21.77c-1.09,6.92-3.76,13.06-8.04,18.42-4.27,5.36-10.07,9.56-17.4,12.62s-16.08,4.58-26.25,4.58c-11.53,0-21.84-2.14-30.93-6.41-9.09-4.27-16.21-10.34-21.37-18.21-5.16-7.87-7.73-17.23-7.73-28.08s2.51-20.08,7.53-28.08c5.02-8,11.97-14.17,20.86-18.52,8.88-4.34,19.16-6.51,30.83-6.51s22.15,2.14,30.22,6.41c8.07,4.27,14.07,10.65,18.01,19.13,3.93,8.48,5.56,19.16,4.88,32.05h-89.34c.68,5.7,2.54,10.82,5.6,15.36,3.05,4.55,7.22,8.07,12.52,10.58,5.29,2.51,11.46,3.77,18.52,3.77,7.87,0,14.48-1.56,19.84-4.68,5.36-3.12,8.85-7.26,10.48-12.41ZM1464.42,59.02c-9.23,0-16.82,2.27-22.79,6.82-5.97,4.55-9.84,10.35-11.6,17.4h65.32c-.54-7.6-3.6-13.53-9.16-17.81-5.56-4.27-12.82-6.41-21.78-6.41Z"/>
      </g>
      <path class="cls-1" d="M0,10.99v133.29h133.29V10.99H0ZM59.15,106.68v25.92l-6.73-12.95-6.73-12.95-.27-8.79-.27-8.79-7.37-4.81-7.37-4.81v-23.11c2.84.92,3.9,3.09,4.66,5.42s1.23,4.82,2.89,6.4c2.33,2.22,6.36,4.11,10.43,6.06,4.08,1.96,8.21,3.98,10.75,6.48v25.92ZM102.87,67.95v11.56l-7.36,4.81-7.36,4.81-.27,8.79-.27,8.79-6.73,12.95-6.73,12.95v-51.85c2.54-2.5,6.67-4.53,10.75-6.48s8.1-3.84,10.43-6.06c1.66-1.58,2.12-4.07,2.89-6.4.76-2.33,1.82-4.49,4.66-5.42v11.56ZM119.12,31.72v9.06c0,.28-1.54,2.44-3.14,4.58-1.6,2.14-3.25,4.25-3.48,4.42-3.7,2.82-10.62,5.13-17.64,7.44-7.01,2.31-14.11,4.6-18.15,7.38-1.43.99-3.39,4.11-5.35,6.9s-3.91,5.25-5.33,4.89c-1.51-1.42-3.09-3.83-4.69-6.16s-3.2-4.56-4.77-5.64c-4.09-2.82-11.25-5.16-18.29-7.48-7.03-2.32-13.94-4.61-17.5-7.34-.22-.17-1.88-2.28-3.48-4.42s-3.14-4.3-3.14-4.58v-18.11l3.77,5.91,3.77,5.91,22.19,6.55,22.19,6.55,22.31-6.34,22.31-6.34,4.19-6.12,4.19-6.12v9.06Z"/>
    </g>
  </g>
</svg>