<?xml version="1.0" encoding="UTF-8"?>
<svg id="Layer_2" data-name="Layer 2" xmlns="http://www.w3.org/2000/svg" viewBox="0 0 1525.68 220.19">
  <defs>
    <style>
      .cls-1, .cls-2 {
        fill: #fff;
      }

      .cls-2 {
        font-family: Syne-SemiBold, Syne;
        font-size: 203.5px;
        font-weight: 600;
      }

      .cls-3 {
        letter-spacing: -.13em;
      }

      .cls-4 {
        letter-spacing: 0em;
      }
    </style>
  </defs>
  <g id="Layer_1-2" data-name="Layer 1">
    <g>
      <text class="cls-2" transform="translate(172.22 167.89)"><tspan class="cls-4" x="0" y="0">Strength</tspan><tspan class="cls-3" x="879.52" y="0"> </tspan><tspan class="cls-4" x="900.88" y="0">Elite</tspan></text>
      <path class="cls-1" d="M0,34.6v133.29h133.29V34.6H0ZM59.15,130.29v25.92l-6.73-12.95-6.73-12.95-.27-8.79-.27-8.79-7.37-4.81-7.37-4.81v-23.11c2.84.92,3.9,3.09,4.66,5.42s1.23,4.82,2.89,6.4c2.33,2.22,6.36,4.11,10.43,6.06,4.08,1.96,8.21,3.98,10.75,6.48v25.92ZM102.87,91.56v11.56l-7.36,4.81-7.36,4.81-.27,8.79-.27,8.79-6.73,12.95-6.73,12.95v-51.85c2.54-2.5,6.67-4.53,10.75-6.48s8.1-3.84,10.43-6.06c1.66-1.58,2.12-4.07,2.89-6.4.76-2.33,1.82-4.49,4.66-5.42v11.56ZM119.12,55.33v9.06c0,.28-1.54,2.44-3.14,4.58-1.6,2.14-3.25,4.25-3.48,4.42-3.7,2.82-10.62,5.13-17.64,7.44-7.01,2.31-14.11,4.6-18.15,7.38-1.43.99-3.39,4.11-5.35,6.9s-3.91,5.25-5.33,4.89c-1.51-1.42-3.09-3.83-4.69-6.16s-3.2-4.56-4.77-5.64c-4.09-2.82-11.25-5.16-18.29-7.48-7.03-2.32-13.94-4.61-17.5-7.34-.22-.17-1.88-2.28-3.48-4.42s-3.14-4.3-3.14-4.58v-18.11l3.77,5.91,3.77,5.91,22.19,6.55,22.19,6.55,22.31-6.34,22.31-6.34,4.19-6.12,4.19-6.12v9.06Z"/>
    </g>
  </g>
</svg>